<?xml version="1.0" standalone="no"?>
<!DOCTYPE svg PUBLIC "-//W3C//DTD SVG 20010904//EN"
 "http://www.w3.org/TR/2001/REC-SVG-20010904/DTD/svg10.dtd">
<svg version="1.0" xmlns="http://www.w3.org/2000/svg"
 width="1536.000000pt" height="1024.000000pt" viewBox="0 0 1536.000000 1024.000000"
 preserveAspectRatio="xMidYMid meet">

<g transform="translate(0.000000,1024.000000) scale(0.100000,-0.100000)"
fill="#000000" stroke="none">
<path d="M4428 8459 c-37 -5 -103 -22 -148 -38 -258 -95 -425 -301 -461 -569
-6 -51 -9 -969 -7 -2692 l3 -2615 22 -78 c53 -185 168 -329 323 -405 121 -59
193 -76 330 -76 136 0 209 17 325 73 150 74 272 215 330 381 l30 85 5 820 c5
755 7 824 24 875 75 229 263 394 506 446 52 11 215 14 818 14 460 0 791 4 850
11 496 54 949 287 1279 659 193 217 334 468 503 899 171 432 288 622 527 851
182 175 372 293 583 363 165 55 277 71 485 71 201 -1 315 -19 466 -74 464
-172 783 -547 890 -1050 32 -150 33 -419 1 -567 -32 -147 -75 -271 -142 -408
-101 -207 -20 -100 -1559 -2075 -220 -283 -401 -518 -401 -522 0 -5 534 -8
1188 -8 1344 0 1234 -7 1280 81 41 78 16 163 -59 201 -32 17 -97 18 -926 18
-491 0 -893 2 -893 5 0 2 36 50 81 107 44 57 126 162 182 233 55 72 133 171
172 220 39 50 197 252 350 450 153 198 371 478 483 623 228 295 299 401 383
577 173 364 224 751 150 1135 -42 216 -140 451 -262 632 -92 135 -304 344
-443 437 -257 171 -515 258 -825 280 -316 23 -606 -33 -888 -169 -212 -102
-365 -213 -539 -392 -254 -261 -379 -469 -573 -955 -54 -137 -119 -290 -145
-342 -262 -520 -668 -847 -1211 -973 -86 -21 -125 -22 -955 -28 -952 -7 -902
-4 -1075 -71 -188 -74 -343 -197 -452 -359 -45 -67 -77 -135 -109 -230 l-29
-85 -5 -815 c-6 -891 -3 -839 -65 -945 -27 -47 -98 -116 -143 -139 -54 -28
-163 -48 -223 -42 -159 16 -291 122 -330 266 -14 52 -19 966 -8 1315 6 189 10
222 37 325 63 237 154 421 315 638 92 123 160 196 271 289 284 238 610 379
960 412 65 7 394 11 810 11 666 0 705 1 784 20 251 60 469 239 577 474 19 40
44 106 56 147 23 73 23 80 29 884 l5 810 32 67 c74 156 232 242 403 218 118
-17 218 -90 268 -198 l27 -57 5 -550 5 -550 51 75 c72 105 230 316 243 324 8
5 11 111 11 342 0 375 -6 425 -66 549 -83 174 -239 300 -434 351 -84 22 -242
22 -332 1 -125 -30 -282 -126 -357 -217 -55 -67 -100 -150 -129 -235 l-27 -80
-5 -820 c-6 -875 -5 -845 -57 -949 -58 -114 -143 -200 -249 -252 -111 -54
-104 -54 -854 -54 -406 0 -743 -4 -810 -11 -603 -55 -1165 -398 -1516 -925
-31 -46 -57 -84 -57 -84 -1 0 -1 681 0 1514 3 1508 3 1515 24 1570 58 155 209
257 385 259 154 2 279 -74 340 -205 l29 -63 3 -927 2 -928 93 46 c50 26 119
57 152 69 l60 23 0 863 c0 965 3 915 -72 1069 -48 99 -167 220 -268 272 -130
68 -295 97 -437 77z"/>
<path d="M10506 7000 c-438 -69 -793 -400 -881 -822 -41 -194 6 -275 159 -269
19 1 41 14 66 39 31 30 39 48 44 87 24 203 84 333 213 462 219 219 571 285
831 157 143 -70 255 -204 308 -369 22 -66 26 -99 26 -190 0 -175 -48 -319
-165 -497 -29 -46 -213 -290 -407 -543 -585 -762 -724 -944 -1010 -1320 -700
-921 -985 -1288 -1032 -1329 -107 -94 -257 -141 -378 -118 -133 24 -237 100
-288 210 l-27 57 -3 913 c-1 501 -4 912 -5 912 -2 0 -34 -15 -73 -34 -38 -19
-104 -45 -146 -58 l-78 -23 0 -843 c0 -947 -1 -929 72 -1082 54 -113 167 -228
278 -282 223 -110 494 -99 712 29 133 78 149 98 1022 1243 499 654 1102 1445
1330 1743 253 331 305 402 346 479 63 116 87 174 118 286 23 86 26 115 27 257
0 196 -14 264 -90 420 -117 242 -307 394 -583 466 -89 24 -293 33 -386 19z"/>
<path d="M8960 5103 c-19 -25 -122 -122 -233 -221 l-37 -32 0 -960 c0 -528 3
-960 8 -960 4 1 73 84 154 186 l148 184 -4 910 c-2 501 -6 913 -8 916 -3 3
-16 -8 -28 -23z"/>
<path d="M9462 2174 c-59 -75 -108 -139 -110 -143 -1 -4 683 -7 1520 -6 1505
0 1523 0 1557 20 39 23 71 77 71 120 0 43 -30 96 -69 122 l-34 23 -1414 0
-1413 0 -108 -136z"/>
</g>
</svg>
